<svg width="90" height="89" viewBox="0 0 90 89" fill="none" xmlns="http://www.w3.org/2000/svg">
<path d="M40.8703 55.9124C62.5587 45.0386 99.2204 19.3079 72.3604 3.37571C45.5003 -12.5564 40.1753 31.7618 40.8703 55.9124Z" fill="white"/>
<path d="M40.674 60.9122C58.6504 67.1535 93.6217 74.1539 89.6951 52.2256C85.7686 30.2973 55.3783 48.8799 40.674 60.9122Z" fill="white"/>
<path d="M34.7653 57.6285C39.4527 39.2709 43.4229 4.00519 21.8044 9.8029C0.185943 15.6006 21.4373 44.1023 34.7653 57.6285Z" fill="white"/>
<path d="M39.3398 64.6509C45.2889 76.8446 59.4716 97.9587 68.6093 84.8658C77.747 71.7729 52.9037 65.9338 39.3398 64.6509Z" fill="white"/>
<path d="M32.9058 60.9983C25.4776 49.6358 8.76384 30.4416 1.33507 44.5639C-6.09371 58.6863 19.2869 61.4045 32.9058 60.9983Z" fill="white"/>
</svg>
